<svg xmlns="http://www.w3.org/2000/svg" viewBox="0 0 381.38 436.25"><defs><style>.cls-1{fill:#fff;}</style></defs><g id="Layer_2" data-name="Layer 2"><g id="Layer_1-2" data-name="Layer 1"><path class="cls-1" d="M381.3,115.63c0,72,.09,144-.18,216,0,5-2.19,10.25-4.31,14.95-1.47,3.28-4.95,4.24-8.91,5.1-26.06,5.66-52.35,1.6-78.49,2.38-26.48.79-53,.17-79.5.17-26.34,0-52.67-.07-79,0-12.51,0-21.84-9.53-21.79-23.35,0-13.33,0-26.66,0-40q0-56,0-112,0-17,0-34,0-40.17,0-80.34,0-18.33.11-36.67a47.69,47.69,0,0,1,3-16.23C115.25,3.81,121.47,0,130.2,0c40.34.11,80.68,0,121,0h13c8,0,8,0,8,7.73,0,26.67-.12,53.33.13,80,0,4.36.53,9.52,2.87,12.86,4.17,5.95,10.78,8.59,18.4,8.55,26.67-.13,53.34,0,80,0,1.16,0,2.34.07,3.5,0,2.9-.2,4.46.92,4.2,4C381.24,114,381.3,114.8,381.3,115.63Z"/><path class="cls-1" d="M272.28,389.47c-.63,10.1-.62,20.24-1.12,30.35-.42,8.33-8.9,15.57-18.73,16.34-1.17.09-2.34,0-3.5,0-74.52,0-149,.2-223.56-.29-7.93-.05-17.75-.24-22.35-9.4A28.75,28.75,0,0,1,.13,414.15C-.06,362.32,0,310.48,0,258.65q0-76.75,0-153.5C0,89.35,7.36,82.07,23.3,82.06c16.84,0,33.68.19,50.51-.12,5.08-.09,6.49,1.38,6.48,6.46-.16,80.67,0,161.34-.23,242,0,12.3,2.75,23.9,9.53,33.52,7,10,17.91,16,30.3,18.08a74.79,74.79,0,0,0,12.41,1.06q66.76.1,133.53-.06C270.9,383,272.6,384.37,272.28,389.47Z"/><path class="cls-1" d="M375.92,80.29c-11.65-.29-23.31-.1-35-.1s-23.31-.1-35,.06c-3.67.06-4.95-1.17-4.93-4.88q.18-35.21,0-70.41c0-4.58,1.9-5.35,5.8-4.73a27.43,27.43,0,0,1,15.51,8.23Q347.54,33.77,372.83,59c4.29,4.3,7.79,9.05,8.46,15.42C381.73,78.59,380.56,80.4,375.92,80.29Z"/></g></g></svg>