<svg xmlns="http://www.w3.org/2000/svg" viewBox="0 0 581.64 79.22"><defs><style>.cls-1{fill:#2a9d8f;}.cls-2{fill:#264653;}</style></defs><g id="Layer_2" data-name="Layer 2"><g id="Layer_1-2" data-name="Layer 1"><path class="cls-1" d="M20.08,18.52q7.26,0,12.73,6.09V16q0-5.09-3.36-7.68a11.54,11.54,0,0,0-7.18-2.6q-5.47,0-8.5,1.74t-3,4.16H2.66q0-6.28,5.41-8.92A28.62,28.62,0,0,1,20.59,0q9.48,0,14.57,4.59A14.66,14.66,0,0,1,40.23,16V40.7q0,11.53-5,17.25T20.86,63.67q-10.2,0-15.53-6.11T0,40.7q0-10,5.33-16.09T20.08,18.52Zm0,6.09a10.72,10.72,0,0,0-9,4.24Q7.81,33.08,7.81,40.47q0,8,3.23,12.54t9.82,4.57a10.4,10.4,0,0,0,8.85-4.14q3.1-4.14,3.1-12.74T29.32,28.38A12,12,0,0,0,20.08,24.61Z"/><path class="cls-1" d="M81.56,39.14a17.29,17.29,0,0,0-3.45-10.76q-3.47-4.54-8.42-4.55c-2.81,0-5.28,1.31-7.39,3.92s-3.16,6.55-3.16,11.78q0,13.32,17.54,23.36H65.74Q51.57,53.79,51.56,39.53q0-10.78,5.14-16.29a17,17,0,0,1,13-5.51q10.16,0,15.47,11.29Q90.5,17.74,100.7,17.73a17,17,0,0,1,13,5.51q5.16,5.51,5.16,16.29,0,14.27-14.22,23.36H93.67q17.53-10.47,17.54-23.36,0-7.77-3.16-11.74t-7.35-4a10.26,10.26,0,0,0-8.4,4.43A17.78,17.78,0,0,0,88.79,39l0,7.93H81.56Z"/><path class="cls-1" d="M169.22,62q0,5.82-5.31,11.51t-15.24,5.68q-9.37,0-14.53-5.78T129,61.33A21.45,21.45,0,0,1,131.33,52l6.95,2.39A12.7,12.7,0,0,0,136.8,61a12.28,12.28,0,0,0,3.51,8.4,11.08,11.08,0,0,0,8.48,3.86,12.76,12.76,0,0,0,9-3.3,10.53,10.53,0,0,0,3.6-8.06v-1.1q0-6.72-2.78-9.49c-1.85-1.85-4.55-2.77-8.12-2.77h-4.81V41.64h4.81q5,0,7.38-2.62a10.23,10.23,0,0,0,2.62-6.48q0-7.54-11.92-14.41H160.7q6.84,6.09,7.31,14.25,0,8.86-8.28,13.4,9.48,4.8,9.49,14.65Z"/><path class="cls-1" d="M250.08,59q11-11.67,11-21.05a13.91,13.91,0,0,0-3.35-9.59c-2.24-2.51-4.5-3.77-6.76-3.77q-5,0-7.54,3.46t-2.66,9.78V48.13H233.2V37.85q-.1-6.33-2.63-10.17A7.56,7.56,0,0,0,224,23.83a7.38,7.38,0,0,0-7,4q-2.19,4-2.19,10.57V48.44l-7.61,0v-10q0-6.68-3-10.22a9.1,9.1,0,0,0-7.19-3.53q-3.41,0-6.66,3.85t-3.26,11.23q0,15.47,12.05,23.92t40.45,8.46h6v7.15h-5.54q-30.75,0-45.77-10.29t-15-29q0-10,5.35-15.7a16.5,16.5,0,0,1,12.38-5.7q9,0,13.94,9.68,2.63-10.47,13-10.47,9.22,0,13,10.47,4.92-9.68,13.95-9.68a17.06,17.06,0,0,1,12.38,5.31q5.35,5.31,5.35,14.14,0,10-8.32,21.05Z"/><path class="cls-1" d="M318.2,59.84q0,8.72-5.15,14t-14.3,5.31q-9.25,0-14.59-5.61a18.4,18.4,0,0,1-5.33-13.1q0-3.63,3.24-9.65l6.68,2.73a11.63,11.63,0,0,0-2.34,6.84,12.51,12.51,0,0,0,3.75,8.93,11.62,11.62,0,0,0,8.59,3.88,11.2,11.2,0,0,0,8.89-3.73,14.09,14.09,0,0,0,3.26-9.63V35.39q0-5.75-3.17-8.65a11.88,11.88,0,0,0-8.39-2.91,9.78,9.78,0,0,0-7.15,2.54,8.47,8.47,0,0,0-2.62,6.36A11.59,11.59,0,0,0,291.05,39l-7.22,2.11a26.77,26.77,0,0,1-2-8.4,15.5,15.5,0,0,1,4.33-10.19q4.26-4.8,13.28-4.81t13.87,4.89q4.89,4.88,4.88,13Z"/><path class="cls-1" d="M343.59,4.22h6.64L329.92,70h-6.64Z"/><path class="cls-2" d="M408.79,23.16,368.48,37.5l40.31,14.26v7.11L358.71,40.7V34.22l50.08-18.17Z"/><path class="cls-2" d="M424.06,45.27V18.79h7.19V45q0,6.21,2.42,9.32t7.27,3.1a11.81,11.81,0,0,0,9.2-3.71q3.38-3.7,3.38-10.12V18.79h7.18V62.54h-7.18V55.82a17.71,17.71,0,0,1-6.08,5.92,16.15,16.15,0,0,1-8,1.93q-7.53,0-11.44-4.69T424.06,45.27Z"/><path class="cls-2" d="M500.86,25.51a9.5,9.5,0,0,0-2.64-1,14,14,0,0,0-3.14-.33q-6.09,0-9.36,4t-3.26,11.38v23h-7.23V18.79h7.23v6.8a14.74,14.74,0,0,1,5.9-5.92,18.55,18.55,0,0,1,8.83-1.94c.49,0,1,0,1.64.1s1.26.17,2,.3Z"/><path class="cls-2" d="M508.4,1.76h7.19V62.54H508.4Z"/><path class="cls-2" d="M531.56,23.16V16.05l50.08,18.17V40.7L531.56,58.87V51.76L571.8,37.5Z"/></g></g></svg>